HIERARCHY
ROOT hip
{
	OFFSET 0.000000 0.000000 0.000000
	CHANNELS 6  Xposition Yposition Zposition Xrotation Zrotation Yrotation
	JOINT abdomen
	{
		OFFSET 0.000000 3.402643 0.000000
			CHANNELS 3 Xrotation Zrotation Yrotation
		JOINT chest
		{
			OFFSET 0.000000 8.438565 -0.680529
				CHANNELS 3 Xrotation Zrotation Yrotation
			JOINT neck
			{
				OFFSET 0.000000 10.207942 -0.272212
					CHANNELS 3 Xrotation Zrotation Yrotation
				JOINT head
				{
					OFFSET 0.000000 3.130431 0.000000
						CHANNELS 3 Xrotation Zrotation Yrotation
					End Site
					{
						OFFSET 0.000000 3.130435 0.000000
					}
				}
			}
			JOINT rCollar
			{
				OFFSET 3.470700 6.669187 -0.816635
					CHANNELS 3 Yrotation Zrotation Xrotation
				JOINT rShldr
				{
					OFFSET 3.198488 0.000000 0.000000
						CHANNELS 3 Zrotation Yrotation Xrotation
					JOINT rForeArm
					{
						OFFSET 10.139888 0.000000 0.000000
							CHANNELS 3 Yrotation Zrotation Xrotation
						JOINT rHand
						{
							OFFSET 8.370511 0.000000 0.000000
								CHANNELS 3 Zrotation Yrotation Xrotation
							End Site
							{
								OFFSET 4.083176 0.000000 0.000000
							}
						}
					}
				}
			}
			JOINT lCollar
			{
				OFFSET -3.470700 6.669187 -0.816635
					CHANNELS 3 Yrotation Zrotation Xrotation
				JOINT lShldr
				{
					OFFSET -3.198488 0.000000 0.000000
						CHANNELS 3 Zrotation Yrotation Xrotation
					JOINT lForeArm
					{
						OFFSET -10.139888 0.000000 0.000000
							CHANNELS 3 Yrotation Zrotation Xrotation
						JOINT lHand
						{
							OFFSET -8.370511 0.000000 0.000000
								CHANNELS 3 Zrotation Yrotation Xrotation
							End Site
							{
								OFFSET -4.083176 0.000000 0.000000
							}
						}
					}
				}
			}
		}
	}
	JOINT rThigh
	{
		OFFSET 5.308129 -1.633274 1.361059
			CHANNELS 3 Xrotation Zrotation Yrotation
		JOINT rShin
		{
			OFFSET -2.041588 -20.007561 0.000000
				CHANNELS 3 Xrotation Zrotation Yrotation
			JOINT rFoot
			{
				OFFSET 0.000000 -19.190928 -1.224953
					CHANNELS 3 Xrotation Yrotation Zrotation
				End Site
				{
					OFFSET 0.000000 -2.449906 4.627600
				}
			}
		}
	}
	JOINT lThigh
	{
		OFFSET -5.308129 -1.633274 1.361059
			CHANNELS 3 Xrotation Zrotation Yrotation
		JOINT lShin
		{
			OFFSET 2.041588 -20.007561 0.000000
				CHANNELS 3 Xrotation Zrotation Yrotation
			JOINT lFoot
			{
				OFFSET 0.000000 -19.190928 -1.224953
					CHANNELS 3 Xrotation Yrotation Zrotation
				End Site
				{
					OFFSET 0.000000 -2.449906 4.627600
				}
			}
		}
	}
}
MOTION
Frames: 17
Frame Time: 0.032000
-0.000000 46.412506 0.000000 -0.51 0.00 -0.00 1.16 0.00 -0.00 -7.02 -0.01 0.00 0.00 0.00 -0.00 0.00 0.00 -25.33 -0.00 1.00 0.00 72.99 -9.00 18.99 6.99 -0.00 0.00 1.03 7.97 -4.49 -0.00 1.00 0.00 -73.00 9.00 18.98 -7.00 -0.00 -0.00 -1.04 -7.98 -4.49 1.08 0.00 -0.02 0.00 0.00 -0.00 -0.00 -0.00 0.00 1.08 -0.03 -0.00 0.00 0.00 -0.00 -0.63 0.06 0.02 
-0.000000 46.407925 0.000000 -0.54 0.00 -0.00 1.16 0.00 -0.00 -7.03 -0.01 0.00 0.00 0.00 -0.00 0.00 0.00 -26.00 -0.00 1.00 0.00 72.99 -9.00 18.99 6.99 -0.00 0.00 1.03 7.97 -4.49 -0.00 1.00 0.00 -73.00 9.00 18.98 -7.00 -0.00 -0.00 -1.04 -7.98 -4.49 1.09 0.00 -0.02 0.00 0.00 -0.00 -0.00 -0.00 0.00 1.08 -0.03 -0.00 0.00 0.00 -0.00 -0.64 0.06 0.02 
-0.000000 46.396175 0.000000 -0.63 0.00 -0.00 1.17 0.00 -0.00 -7.07 -0.01 0.00 0.00 0.00 -0.00 0.00 0.00 -26.66 -0.00 1.00 0.00 72.99 -9.00 18.99 6.99 -0.00 0.00 1.03 7.97 -4.49 -0.00 1.00 0.00 -73.00 9.00 18.99 -7.00 -0.00 -0.00 -1.04 -7.98 -4.49 1.10 0.00 -0.02 0.00 0.00 -0.00 -0.00 -0.00 0.00 1.09 -0.03 -0.00 0.00 0.00 -0.00 -0.65 0.05 0.02 
-0.000000 46.386429 0.000000 -0.72 0.00 -0.00 1.17 0.00 -0.00 -7.09 -0.01 0.00 0.00 0.00 -0.00 0.00 0.00 -27.33 -0.00 1.00 0.00 72.99 -9.00 18.99 6.99 -0.00 0.00 1.03 7.97 -4.49 -0.00 1.00 0.00 -73.00 9.00 18.99 -7.00 -0.00 -0.00 -1.04 -7.98 -4.49 1.10 0.00 -0.02 0.00 0.00 -0.00 -0.00 -0.00 0.00 1.09 -0.03 -0.00 0.00 0.00 -0.00 -0.66 0.05 0.01 
-0.000000 46.376690 0.000000 -0.79 0.00 -0.00 1.18 0.00 -0.00 -7.10 -0.01 0.00 0.00 0.00 -0.00 0.00 0.00 -28.00 -0.00 1.00 0.00 72.99 -9.00 18.99 6.99 -0.00 0.00 1.03 7.97 -4.49 -0.00 1.00 0.00 -73.00 9.00 18.99 -7.00 -0.00 -0.00 -1.04 -7.98 -4.49 1.10 0.00 -0.02 0.00 0.00 -0.00 -0.00 -0.00 0.00 1.10 -0.03 -0.00 0.00 0.00 -0.00 -0.68 0.05 0.01 
-0.000000 46.366947 0.000000 -0.87 0.00 -0.00 1.18 0.00 -0.00 -7.11 -0.01 0.00 0.00 0.00 -0.00 0.00 0.00 -28.66 -0.00 1.00 0.00 72.99 -9.00 18.99 6.99 -0.00 0.00 1.03 7.97 -4.49 -0.00 1.00 0.00 -73.00 9.00 18.98 -7.00 -0.00 -0.00 -1.04 -7.98 -4.49 1.10 0.00 -0.02 0.00 0.00 -0.00 -0.00 -0.00 0.00 1.10 -0.03 -0.00 0.00 0.00 -0.00 -0.68 0.05 0.01 
-0.000000 46.362362 0.000000 -0.91 0.00 -0.00 1.18 0.00 -0.00 -7.11 -0.01 0.00 0.00 0.00 -0.00 0.00 0.00 -29.33 -0.00 1.00 0.00 72.99 -9.00 18.99 6.99 -0.00 0.00 1.03 7.97 -4.49 -0.00 1.00 0.00 -73.00 9.00 18.98 -7.00 -0.00 -0.00 -1.04 -7.98 -4.49 1.10 0.00 -0.02 0.00 0.00 -0.00 -0.00 -0.00 0.00 1.10 -0.03 -0.00 0.00 0.00 -0.00 -0.68 0.05 0.01 
-0.000000 46.354771 0.000000 -0.97 0.00 -0.00 1.18 0.00 -0.00 -7.09 -0.01 0.00 0.00 0.00 -0.00 0.00 0.00 -30.00 -0.00 1.00 0.00 72.99 -9.00 18.99 6.99 -0.00 0.00 1.03 7.97 -4.49 -0.00 1.00 0.00 -73.00 8.99 18.99 -7.00 -0.00 -0.00 -1.04 -7.98 -4.49 1.10 0.00 -0.02 0.00 0.00 -0.00 -0.00 -0.00 0.00 1.09 -0.03 -0.00 0.00 0.00 -0.00 -0.67 0.04 0.01 
-0.000000 46.362843 0.000000 -0.90 0.00 -0.00 1.17 0.00 -0.00 -7.07 -0.01 0.00 0.00 0.00 -0.00 0.00 0.00 -28.00 -0.00 1.00 0.00 72.99 -9.00 18.99 6.99 -0.00 0.00 1.03 7.97 -4.49 -0.00 1.00 0.00 -73.00 9.00 18.99 -7.00 -0.00 -0.00 -1.04 -7.98 -4.49 1.10 0.00 -0.02 0.00 0.00 -0.00 -0.00 -0.00 0.00 1.09 -0.03 -0.00 0.00 0.00 -0.00 -0.65 0.04 0.01 
-0.000000 46.369671 0.000000 -0.85 0.00 -0.00 1.16 0.00 -0.00 -7.04 -0.01 0.00 0.00 0.00 -0.00 0.00 0.00 -26.00 -0.00 1.00 0.00 72.99 -9.00 18.99 6.99 -0.00 0.00 1.03 7.97 -4.49 -0.00 1.00 0.00 -73.00 8.99 18.99 -7.00 -0.00 -0.00 -1.04 -7.98 -4.49 1.09 0.00 -0.02 0.00 0.00 -0.00 -0.00 -0.00 0.00 1.09 -0.03 -0.00 0.00 0.00 -0.00 -0.66 0.04 0.01 
-0.000000 46.376507 0.000000 -0.80 0.00 -0.00 1.16 0.00 -0.00 -7.00 -0.01 0.00 0.00 0.00 -0.00 0.00 0.00 -24.00 -0.00 1.00 0.00 72.99 -9.00 18.99 6.99 -0.00 0.00 1.03 7.97 -4.49 -0.00 1.00 0.00 -73.00 9.00 18.99 -7.00 -0.00 -0.00 -1.04 -7.98 -4.49 1.08 0.00 -0.02 0.00 0.00 -0.00 -0.00 -0.00 0.00 1.08 -0.03 -0.00 0.00 0.00 -0.00 -0.67 0.04 0.01 
-0.000000 46.383335 0.000000 -0.74 0.00 -0.00 1.15 0.00 -0.00 -6.96 -0.01 0.00 0.00 0.00 -0.00 0.00 0.00 -22.00 -0.00 1.00 0.00 72.99 -9.00 18.99 6.99 -0.00 0.00 1.03 7.97 -4.49 -0.00 1.00 0.00 -73.00 8.99 18.99 -7.00 -0.00 -0.00 -1.04 -7.98 -4.49 1.08 0.00 -0.02 0.00 0.00 -0.00 -0.00 -0.00 0.00 1.07 -0.03 -0.00 0.00 0.00 -0.00 -0.65 0.04 0.01 
-0.000000 46.390366 0.000000 -0.68 0.00 -0.00 1.14 0.00 -0.00 -6.91 -0.01 0.00 0.00 0.00 -0.00 0.00 0.00 -20.00 -0.00 1.00 0.00 72.99 -9.00 18.99 6.99 -0.00 0.00 1.03 7.97 -4.49 -0.00 1.00 0.00 -73.00 8.99 18.99 -7.00 -0.00 -0.00 -1.04 -7.98 -4.49 1.07 0.00 -0.02 0.00 0.00 -0.00 -0.00 -0.00 0.00 1.06 -0.03 -0.00 0.00 0.00 -0.00 -0.64 0.04 0.01 
-0.000000 46.390366 0.000000 -0.68 0.00 -0.00 1.14 0.00 -0.00 -6.91 -0.01 0.00 0.00 0.00 -0.00 0.00 0.00 -18.00 -0.00 1.00 0.00 72.99 -9.00 18.99 6.99 -0.00 0.00 1.03 7.97 -4.49 -0.00 1.00 0.00 -73.00 8.99 18.99 -7.00 -0.00 -0.00 -1.04 -7.98 -4.49 1.07 0.00 -0.02 0.00 0.00 -0.00 -0.00 -0.00 0.00 1.06 -0.03 -0.00 0.00 0.00 -0.00 -0.64 0.04 0.01 
-0.000000 46.402576 0.000000 -0.58 0.00 -0.00 1.13 0.00 -0.00 -6.80 -0.01 0.00 0.00 0.00 -0.00 0.00 0.00 -16.00 -0.00 1.00 0.00 72.99 -9.00 18.99 6.99 -0.00 0.00 1.03 7.97 -4.49 -0.00 1.00 0.00 -73.00 8.99 18.99 -7.00 -0.00 -0.00 -1.04 -7.98 -4.49 1.06 0.00 -0.02 0.00 0.00 -0.00 -0.00 -0.00 0.00 1.05 -0.03 0.01 0.00 0.00 -0.00 -0.63 0.08 0.04 
-0.000000 46.410027 0.000000 -0.52 0.00 -0.00 1.11 0.00 -0.00 -6.72 -0.01 0.00 0.00 0.00 -0.00 0.00 0.00 -14.00 -0.00 1.00 0.00 72.99 -9.00 18.99 6.99 -0.00 0.00 1.03 7.97 -4.49 -0.00 1.00 0.00 -73.00 9.00 18.98 -7.00 -0.00 -0.00 -1.04 -7.98 -4.49 1.04 0.00 -0.02 0.00 0.00 -0.00 -0.00 -0.00 0.00 1.04 -0.03 0.01 0.00 0.00 -0.00 -0.63 0.07 0.04 
-0.000000 46.414993 0.000000 -0.49 0.00 -0.00 1.10 0.00 -0.00 -6.66 -0.01 0.00 0.00 0.00 -0.00 0.00 0.00 -12.00 -0.00 1.00 0.00 72.99 -9.00 18.99 6.99 -0.00 0.00 1.03 7.97 -4.49 -0.00 1.00 0.00 -73.00 8.99 18.99 -7.00 -0.00 -0.00 -1.04 -7.98 -4.49 1.04 0.00 -0.02 0.00 0.00 -0.00 -0.00 -0.00 0.00 1.04 -0.03 0.01 0.00 0.00 -0.00 -0.63 0.07 0.04 
